<?xml version="1.0" encoding="UTF-8" standalone="yes"?><svg xmlns="http://www.w3.org/2000/svg" xmlns:xlink="http://www.w3.org/1999/xlink" height="1004px" style="width:843px;height:1004px;" version="1.1" viewBox="0 0 843 1004" width="843px"><defs><filter height="300%" id="f1" width="300%" x="-1" y="-1"><feGaussianBlur result="blurOut" stdDeviation="2.0"/><feColorMatrix in="blurOut" result="blurOut2" type="matrix" values="0 0 0 0 0 0 0 0 0 0 0 0 0 0 0 0 0 0 .4 0"/><feOffset dx="4.0" dy="4.0" in="blurOut2" result="blurOut3"/><feBlend in="SourceGraphic" in2="blurOut3" mode="normal"/></filter></defs><g><polygon fill="#FFFFFF" filter="url(#f1)" points="327,8,358,8,365,30.0986,372,30.0986,372,76.2959,327,76.2959,327,8" style="stroke: #000000; stroke-width: 2.0;"/><line style="stroke: #000000; stroke-width: 2.0;" x1="327" x2="365" y1="30.0986" y2="30.0986"/><text fill="#000000" font-family="sans-serif" font-size="14" font-weight="bold" lengthAdjust="spacingAndGlyphs" textLength="25" x="330" y="24.1318">GUI</text><rect fill="#FEFECE" filter="url(#f1)" height="149.1914" style="stroke: #A80036; stroke-width: 1.5;" width="175" x="316" y="466"/><ellipse cx="379.75" cy="482" fill="#ADD1B2" rx="11" ry="11" style="stroke: #A80036; stroke-width: 1.0;"/><path d="M377.6563,481.8438 Q377.6563,483.7188 378.2344,484.7266 Q378.8125,485.7344 379.9688,485.7344 Q381.3125,485.7344 381.9688,483.7188 L384.2344,484.1406 Q383.125,487.6719 379.9531,487.6719 Q377.6094,487.6719 376.3906,486.1875 Q375.1719,484.7031 375.1719,481.8438 Q375.1719,476.125 379.875,476.125 Q381.4219,476.125 382.4609,476.9375 Q383.5,477.75 384,479.3594 L381.7344,479.9063 Q381.5,479.0313 381.0156,478.5391 Q380.5313,478.0469 379.9063,478.0469 Q377.6563,478.0469 377.6563,481.8438 Z "/><text fill="#000000" font-family="sans-serif" font-size="12" lengthAdjust="spacingAndGlyphs" textLength="39" x="400.25" y="486.3564">Recipe</text><line style="stroke: #A80036; stroke-width: 1.5;" x1="317" x2="490" y1="498" y2="498"/><rect fill="none" height="6" style="stroke: #C82930; stroke-width: 1.0;" width="6" x="324" y="506.8245"/><text fill="#000000" font-family="sans-serif" font-size="11" lengthAdjust="spacingAndGlyphs" textLength="35" x="336" y="512.3179">id : u32</text><rect fill="none" height="6" style="stroke: #C82930; stroke-width: 1.0;" width="6" x="324" y="519.4734"/><text fill="#000000" font-family="sans-serif" font-size="11" lengthAdjust="spacingAndGlyphs" textLength="63" x="336" y="524.9668">name : String</text><rect fill="none" height="6" style="stroke: #C82930; stroke-width: 1.0;" width="6" x="324" y="532.1223"/><text fill="#000000" font-family="sans-serif" font-size="11" lengthAdjust="spacingAndGlyphs" textLength="90" x="336" y="537.6157">description : String</text><rect fill="none" height="6" style="stroke: #C82930; stroke-width: 1.0;" width="6" x="324" y="544.7712"/><text fill="#000000" font-family="sans-serif" font-size="11" lengthAdjust="spacingAndGlyphs" textLength="141" x="336" y="550.2646">ingredients : Vec&lt;Ingredient&gt;</text><line style="stroke: #A80036; stroke-width: 1.0;" x1="317" x2="490" y1="556.5957" y2="556.5957"/><ellipse cx="327" cy="568.4202" fill="#84BE84" rx="3" ry="3" style="stroke: #038048; stroke-width: 1.0;"/><text fill="#000000" font-family="sans-serif" font-size="11" lengthAdjust="spacingAndGlyphs" textLength="43" x="336" y="570.9136">id() : u32</text><ellipse cx="327" cy="581.0691" fill="#84BE84" rx="3" ry="3" style="stroke: #038048; stroke-width: 1.0;"/><text fill="#000000" font-family="sans-serif" font-size="11" lengthAdjust="spacingAndGlyphs" textLength="71" x="336" y="583.5625">name() : String</text><ellipse cx="327" cy="593.718" fill="#84BE84" rx="3" ry="3" style="stroke: #038048; stroke-width: 1.0;"/><text fill="#000000" font-family="sans-serif" font-size="11" lengthAdjust="spacingAndGlyphs" textLength="98" x="336" y="596.2114">description() : String</text><ellipse cx="327" cy="606.3669" fill="#84BE84" rx="3" ry="3" style="stroke: #038048; stroke-width: 1.0;"/><text fill="#000000" font-family="sans-serif" font-size="11" lengthAdjust="spacingAndGlyphs" textLength="149" x="336" y="608.8604">ingredients() : Vec&lt;Ingredient&gt;</text><rect fill="#FEFECE" filter="url(#f1)" height="123.8936" style="stroke: #A80036; stroke-width: 1.5;" width="97" x="355" y="675"/><ellipse cx="374.5" cy="691" fill="#ADD1B2" rx="11" ry="11" style="stroke: #A80036; stroke-width: 1.0;"/><path d="M372.4063,690.8438 Q372.4063,692.7188 372.9844,693.7266 Q373.5625,694.7344 374.7188,694.7344 Q376.0625,694.7344 376.7188,692.7188 L378.9844,693.1406 Q377.875,696.6719 374.7031,696.6719 Q372.3594,696.6719 371.1406,695.1875 Q369.9219,693.7031 369.9219,690.8438 Q369.9219,685.125 374.625,685.125 Q376.1719,685.125 377.2109,685.9375 Q378.25,686.75 378.75,688.3594 L376.4844,688.9063 Q376.25,688.0313 375.7656,687.5391 Q375.2813,687.0469 374.6563,687.0469 Q372.4063,687.0469 372.4063,690.8438 Z "/><text fill="#000000" font-family="sans-serif" font-size="12" lengthAdjust="spacingAndGlyphs" textLength="55" x="389.5" y="695.3564">Ingredient</text><line style="stroke: #A80036; stroke-width: 1.5;" x1="356" x2="451" y1="707" y2="707"/><rect fill="none" height="6" style="stroke: #C82930; stroke-width: 1.0;" width="6" x="363" y="715.8245"/><text fill="#000000" font-family="sans-serif" font-size="11" lengthAdjust="spacingAndGlyphs" textLength="63" x="375" y="721.3179">name : String</text><rect fill="none" height="6" style="stroke: #C82930; stroke-width: 1.0;" width="6" x="363" y="728.4734"/><text fill="#000000" font-family="sans-serif" font-size="11" lengthAdjust="spacingAndGlyphs" textLength="44" x="375" y="733.9668">unit : Unit</text><rect fill="none" height="6" style="stroke: #C82930; stroke-width: 1.0;" width="6" x="363" y="741.1223"/><text fill="#000000" font-family="sans-serif" font-size="11" lengthAdjust="spacingAndGlyphs" textLength="63" x="375" y="746.6157">quantity : f32</text><line style="stroke: #A80036; stroke-width: 1.0;" x1="356" x2="451" y1="752.9468" y2="752.9468"/><ellipse cx="366" cy="764.7712" fill="#84BE84" rx="3" ry="3" style="stroke: #038048; stroke-width: 1.0;"/><text fill="#000000" font-family="sans-serif" font-size="11" lengthAdjust="spacingAndGlyphs" textLength="71" x="375" y="767.2646">name() : String</text><ellipse cx="366" cy="777.4202" fill="#84BE84" rx="3" ry="3" style="stroke: #038048; stroke-width: 1.0;"/><text fill="#000000" font-family="sans-serif" font-size="11" lengthAdjust="spacingAndGlyphs" textLength="52" x="375" y="779.9136">unit() : Unit</text><ellipse cx="366" cy="790.0691" fill="#84BE84" rx="3" ry="3" style="stroke: #038048; stroke-width: 1.0;"/><text fill="#000000" font-family="sans-serif" font-size="11" lengthAdjust="spacingAndGlyphs" textLength="71" x="375" y="792.5625">quantity() : f32</text><rect fill="#FEFECE" filter="url(#f1)" height="136.5425" style="stroke: #A80036; stroke-width: 1.5;" width="88" x="359.5" y="859"/><ellipse cx="389.8" cy="875" fill="#EB937F" rx="11" ry="11" style="stroke: #A80036; stroke-width: 1.0;"/><path d="M385.9406,880.5 L385.9406,869.2969 L393.9719,869.2969 L393.9719,871.1875 L388.3938,871.1875 L388.3938,873.8906 L393.4719,873.8906 L393.4719,875.7813 L388.3938,875.7813 L388.3938,878.6094 L394.3156,878.6094 L394.3156,880.5 L385.9406,880.5 Z "/><text fill="#000000" font-family="sans-serif" font-size="12" lengthAdjust="spacingAndGlyphs" textLength="22" x="407.2" y="879.3564">Unit</text><line style="stroke: #A80036; stroke-width: 1.5;" x1="360.5" x2="446.5" y1="891" y2="891"/><ellipse cx="370.5" cy="902.8245" fill="none" rx="3" ry="3" style="stroke: #038048; stroke-width: 1.0;"/><text fill="#000000" font-family="sans-serif" font-size="11" lengthAdjust="spacingAndGlyphs" textLength="39" x="379.5" y="905.3179">GRAMM</text><ellipse cx="370.5" cy="915.4734" fill="none" rx="3" ry="3" style="stroke: #038048; stroke-width: 1.0;"/><text fill="#000000" font-family="sans-serif" font-size="11" lengthAdjust="spacingAndGlyphs" textLength="62" x="379.5" y="917.9668">KILOGRAMM</text><ellipse cx="370.5" cy="928.1223" fill="none" rx="3" ry="3" style="stroke: #038048; stroke-width: 1.0;"/><text fill="#000000" font-family="sans-serif" font-size="11" lengthAdjust="spacingAndGlyphs" textLength="51" x="379.5" y="930.6157">MILLILITER</text><ellipse cx="370.5" cy="940.7712" fill="none" rx="3" ry="3" style="stroke: #038048; stroke-width: 1.0;"/><text fill="#000000" font-family="sans-serif" font-size="11" lengthAdjust="spacingAndGlyphs" textLength="27" x="379.5" y="943.2646">LITER</text><ellipse cx="370.5" cy="953.4202" fill="none" rx="3" ry="3" style="stroke: #038048; stroke-width: 1.0;"/><text fill="#000000" font-family="sans-serif" font-size="11" lengthAdjust="spacingAndGlyphs" textLength="51" x="379.5" y="955.9136">QUANTITS</text><ellipse cx="370.5" cy="966.0691" fill="none" rx="3" ry="3" style="stroke: #038048; stroke-width: 1.0;"/><text fill="#000000" font-family="sans-serif" font-size="11" lengthAdjust="spacingAndGlyphs" textLength="62" x="379.5" y="968.5625">TEA_SPOON</text><ellipse cx="370.5" cy="978.718" fill="none" rx="3" ry="3" style="stroke: #038048; stroke-width: 1.0;"/><text fill="#000000" font-family="sans-serif" font-size="11" lengthAdjust="spacingAndGlyphs" textLength="36" x="379.5" y="981.2114">SPOON</text><line style="stroke: #A80036; stroke-width: 1.5;" x1="360.5" x2="446.5" y1="987.5425" y2="987.5425"/><rect fill="#FEFECE" filter="url(#f1)" height="123.8936" style="stroke: #A80036; stroke-width: 1.5;" width="217" x="295" y="136"/><ellipse cx="359.75" cy="152" fill="#ADD1B2" rx="11" ry="11" style="stroke: #A80036; stroke-width: 1.0;"/><path d="M357.6563,151.8438 Q357.6563,153.7188 358.2344,154.7266 Q358.8125,155.7344 359.9688,155.7344 Q361.3125,155.7344 361.9688,153.7188 L364.2344,154.1406 Q363.125,157.6719 359.9531,157.6719 Q357.6094,157.6719 356.3906,156.1875 Q355.1719,154.7031 355.1719,151.8438 Q355.1719,146.125 359.875,146.125 Q361.4219,146.125 362.4609,146.9375 Q363.5,147.75 364,149.3594 L361.7344,149.9063 Q361.5,149.0313 361.0156,148.5391 Q360.5313,148.0469 359.9063,148.0469 Q357.6563,148.0469 357.6563,151.8438 Z "/><text fill="#000000" font-family="sans-serif" font-size="12" lengthAdjust="spacingAndGlyphs" textLength="79" x="380.25" y="156.3564">ServiceFactory</text><line style="stroke: #A80036; stroke-width: 1.5;" x1="296" x2="511" y1="168" y2="168"/><rect fill="none" height="6" style="stroke: #C82930; stroke-width: 1.0;" width="6" x="303" y="176.8245"/><text fill="#000000" font-family="sans-serif" font-size="11" lengthAdjust="spacingAndGlyphs" textLength="165" x="315" y="182.3179">recipe_service : RecipeDBService</text><rect fill="none" height="6" style="stroke: #C82930; stroke-width: 1.0;" width="6" x="303" y="189.4734"/><text fill="#000000" font-family="sans-serif" font-size="11" lengthAdjust="spacingAndGlyphs" textLength="137" x="315" y="194.9668">csv_exporter : CSVExporter</text><rect fill="none" height="6" style="stroke: #C82930; stroke-width: 1.0;" width="6" x="303" y="202.1223"/><text fill="#000000" font-family="sans-serif" font-size="11" lengthAdjust="spacingAndGlyphs" textLength="183" x="315" y="207.6157">grocery_service : GroceryListService</text><line style="stroke: #A80036; stroke-width: 1.0;" x1="296" x2="511" y1="213.9468" y2="213.9468"/><ellipse cx="306" cy="225.7712" fill="#84BE84" rx="3" ry="3" style="stroke: #038048; stroke-width: 1.0;"/><text fill="#000000" font-family="sans-serif" font-size="11" lengthAdjust="spacingAndGlyphs" textLength="173" x="315" y="228.2646">recipe_service() : RecipeDBService</text><ellipse cx="306" cy="238.4202" fill="#84BE84" rx="3" ry="3" style="stroke: #038048; stroke-width: 1.0;"/><text fill="#000000" font-family="sans-serif" font-size="11" lengthAdjust="spacingAndGlyphs" textLength="145" x="315" y="240.9136">csv_exporter() : CSVExporter</text><ellipse cx="306" cy="251.0691" fill="#84BE84" rx="3" ry="3" style="stroke: #038048; stroke-width: 1.0;"/><text fill="#000000" font-family="sans-serif" font-size="11" lengthAdjust="spacingAndGlyphs" textLength="191" x="315" y="253.5625">grocery_service() : GroceryListService</text><rect fill="#FEFECE" filter="url(#f1)" height="85.9468" style="stroke: #A80036; stroke-width: 1.5;" width="147" x="330" y="320"/><ellipse cx="353.1" cy="336" fill="#B4A7E5" rx="11" ry="11" style="stroke: #A80036; stroke-width: 1.0;"/><path d="M349.3969,330.2969 L357.0063,330.2969 L357.0063,332.1875 L354.4281,332.1875 L354.4281,339.6094 L357.0063,339.6094 L357.0063,341.5 L349.3969,341.5 L349.3969,339.6094 L351.9906,339.6094 L351.9906,332.1875 L349.3969,332.1875 L349.3969,330.2969 Z "/><text fill="#000000" font-family="sans-serif" font-size="12" font-style="italic" lengthAdjust="spacingAndGlyphs" textLength="97" x="368.9" y="340.3564">RecipeDBService</text><line style="stroke: #A80036; stroke-width: 1.5;" x1="331" x2="476" y1="352" y2="352"/><line style="stroke: #A80036; stroke-width: 1.5;" x1="331" x2="476" y1="360" y2="360"/><ellipse cx="341" cy="371.8245" fill="#84BE84" rx="3" ry="3" style="stroke: #038048; stroke-width: 1.0;"/><text fill="#000000" font-family="sans-serif" font-size="11" lengthAdjust="spacingAndGlyphs" textLength="121" x="350" y="374.3179">reciptes() : Vec&lt;Recipe&gt;</text><ellipse cx="341" cy="384.4734" fill="#84BE84" rx="3" ry="3" style="stroke: #038048; stroke-width: 1.0;"/><text fill="#000000" font-family="sans-serif" font-size="11" lengthAdjust="spacingAndGlyphs" textLength="98" x="350" y="386.9668">add(recipe : Recipe)</text><ellipse cx="341" cy="397.1223" fill="#84BE84" rx="3" ry="3" style="stroke: #038048; stroke-width: 1.0;"/><text fill="#000000" font-family="sans-serif" font-size="11" lengthAdjust="spacingAndGlyphs" textLength="109" x="350" y="399.6157">delete(recipe : Recipe)</text><rect fill="#FEFECE" filter="url(#f1)" height="60.6489" style="stroke: #A80036; stroke-width: 1.5;" width="289" x="6" y="332.5"/><ellipse cx="110.75" cy="348.5" fill="#B4A7E5" rx="11" ry="11" style="stroke: #A80036; stroke-width: 1.0;"/><path d="M107.0469,342.7969 L114.6563,342.7969 L114.6563,344.6875 L112.0781,344.6875 L112.0781,352.1094 L114.6563,352.1094 L114.6563,354 L107.0469,354 L107.0469,352.1094 L109.6406,352.1094 L109.6406,344.6875 L107.0469,344.6875 L107.0469,342.7969 Z "/><text fill="#000000" font-family="sans-serif" font-size="12" font-style="italic" lengthAdjust="spacingAndGlyphs" textLength="71" x="131.25" y="352.8564">CSVExporter</text><line style="stroke: #A80036; stroke-width: 1.5;" x1="7" x2="294" y1="364.5" y2="364.5"/><line style="stroke: #A80036; stroke-width: 1.5;" x1="7" x2="294" y1="372.5" y2="372.5"/><ellipse cx="17" cy="384.3245" fill="#84BE84" rx="3" ry="3" style="stroke: #038048; stroke-width: 1.0;"/><text fill="#000000" font-family="sans-serif" font-size="11" lengthAdjust="spacingAndGlyphs" textLength="263" x="26" y="386.8179">export(ingredients : Vec&lt;Ingredient&gt;, filename : String)</text><rect fill="#FEFECE" filter="url(#f1)" height="60.6489" style="stroke: #A80036; stroke-width: 1.5;" width="322" x="512.5" y="332.5"/><ellipse cx="617.75" cy="348.5" fill="#B4A7E5" rx="11" ry="11" style="stroke: #A80036; stroke-width: 1.0;"/><path d="M614.0469,342.7969 L621.6563,342.7969 L621.6563,344.6875 L619.0781,344.6875 L619.0781,352.1094 L621.6563,352.1094 L621.6563,354 L614.0469,354 L614.0469,352.1094 L616.6406,352.1094 L616.6406,344.6875 L614.0469,344.6875 L614.0469,342.7969 Z "/><text fill="#000000" font-family="sans-serif" font-size="12" font-style="italic" lengthAdjust="spacingAndGlyphs" textLength="103" x="638.25" y="352.8564">GroceryListService</text><line style="stroke: #A80036; stroke-width: 1.5;" x1="513.5" x2="833.5" y1="364.5" y2="364.5"/><line style="stroke: #A80036; stroke-width: 1.5;" x1="513.5" x2="833.5" y1="372.5" y2="372.5"/><ellipse cx="523.5" cy="384.3245" fill="#84BE84" rx="3" ry="3" style="stroke: #038048; stroke-width: 1.0;"/><text fill="#000000" font-family="sans-serif" font-size="11" lengthAdjust="spacingAndGlyphs" textLength="296" x="532.5" y="386.8179">collect_ingredients(recipes : Vec&lt;Recipe&gt;) : Vec&lt;Ingredient&gt;</text><rect fill="#FEFECE" filter="url(#f1)" height="48" style="stroke: #A80036; stroke-width: 1.5;" width="102" x="407.5" y="18"/><ellipse cx="422.5" cy="34" fill="#ADD1B2" rx="11" ry="11" style="stroke: #A80036; stroke-width: 1.0;"/><path d="M420.4063,33.8438 Q420.4063,35.7188 420.9844,36.7266 Q421.5625,37.7344 422.7188,37.7344 Q424.0625,37.7344 424.7188,35.7188 L426.9844,36.1406 Q425.875,39.6719 422.7031,39.6719 Q420.3594,39.6719 419.1406,38.1875 Q417.9219,36.7031 417.9219,33.8438 Q417.9219,28.125 422.625,28.125 Q424.1719,28.125 425.2109,28.9375 Q426.25,29.75 426.75,31.3594 L424.4844,31.9063 Q424.25,31.0313 423.7656,30.5391 Q423.2813,30.0469 422.6563,30.0469 Q420.4063,30.0469 420.4063,33.8438 Z "/><text fill="#000000" font-family="sans-serif" font-size="12" lengthAdjust="spacingAndGlyphs" textLength="70" x="436.5" y="38.3564">Telegrambot</text><line style="stroke: #A80036; stroke-width: 1.5;" x1="408.5" x2="508.5" y1="50" y2="50"/><line style="stroke: #A80036; stroke-width: 1.5;" x1="408.5" x2="508.5" y1="58" y2="58"/><path d="M403.5,615.032 C403.5,630.258 403.5,646.311 403.5,661.569 " fill="none" style="stroke: #A80036; stroke-width: 1.0;"/><polygon fill="#A80036" points="403.5,674.732,407.5,668.732,403.5,662.732,399.5,668.732,403.5,674.732" style="stroke: #A80036; stroke-width: 1.0;"/><path d="M403.5,799.201 C403.5,813.917 403.5,829.865 403.5,845.333 " fill="none" style="stroke: #A80036; stroke-width: 1.0;"/><polygon fill="none" points="403.5,858.76,407.5,852.76,403.5,846.76,399.5,852.76,403.5,858.76" style="stroke: #A80036; stroke-width: 1.0;"/><path d="M403.5,406.037 C403.5,422.443 403.5,441.807 403.5,460.622 " fill="none" style="stroke: #A80036; stroke-width: 1.0;"/><polygon fill="#A80036" points="403.5,465.911,407.5,456.911,403.5,460.911,399.5,456.911,403.5,465.911" style="stroke: #A80036; stroke-width: 1.0;"/><path d="M193.132,393.573 C225.402,415.958 270.926,447.536 311.375,475.595 " fill="none" style="stroke: #A80036; stroke-width: 1.0;"/><polygon fill="#A80036" points="315.775,478.647,310.6612,470.2298,311.6671,475.7965,306.1004,476.8024,315.775,478.647" style="stroke: #A80036; stroke-width: 1.0;"/><path d="M165.724,393.682 C190.889,441.783 243.838,539.036 298.5,615 C314.491,637.223 333.71,660.247 351.309,680.169 " fill="none" style="stroke: #A80036; stroke-width: 1.0;"/><polygon fill="#A80036" points="354.806,684.111,351.8264,674.7237,351.4882,680.3704,345.8414,680.0322,354.806,684.111" style="stroke: #A80036; stroke-width: 1.0;"/><path d="M628.003,393.573 C591.824,417.09 540.035,450.753 495.313,479.822 " fill="none" style="stroke: #A80036; stroke-width: 1.0;"/><polygon fill="#A80036" points="491.008,482.62,500.7336,481.0668,495.1996,479.8942,496.3723,474.3602,491.008,482.62" style="stroke: #A80036; stroke-width: 1.0;"/><path d="M655.669,393.852 C626.649,441.781 566.584,538.297 508.5,615 C492.129,636.619 472.997,659.322 455.583,679.147 " fill="none" style="stroke: #A80036; stroke-width: 1.0;"/><polygon fill="#A80036" points="452.124,683.073,461.0753,678.9651,455.4297,679.3216,455.0731,673.676,452.124,683.073" style="stroke: #A80036; stroke-width: 1.0;"/><path d="M403.5,260.159 C403.5,275.375 403.5,291.601 403.5,306.527 " fill="none" style="stroke: #A80036; stroke-width: 1.0;"/><polygon fill="none" points="403.5,319.802,407.5,313.802,403.5,307.802,399.5,313.802,403.5,319.802" style="stroke: #A80036; stroke-width: 1.0;"/><path d="M308.572,260.159 C274.506,282.107 237.176,306.158 207.35,325.373 " fill="none" style="stroke: #A80036; stroke-width: 1.0;"/><polygon fill="none" points="196.31,332.486,203.5202,332.599,206.3977,325.9868,199.1874,325.8739,196.31,332.486" style="stroke: #A80036; stroke-width: 1.0;"/><path d="M504.806,260.159 C541.322,282.204 581.351,306.37 613.25,325.627 " fill="none" style="stroke: #A80036; stroke-width: 1.0;"/><polygon fill="none" points="624.612,332.486,621.5425,325.9608,614.3386,326.2845,617.4082,332.8097,624.612,332.486" style="stroke: #A80036; stroke-width: 1.0;"/><path d="M450.266,66.055 C444.781,81.414 437.24,102.528 429.815,123.319 " fill="none" style="stroke: #A80036; stroke-width: 1.0;"/><polygon fill="none" points="425.35,135.821,431.1347,131.5155,429.3852,124.5198,423.6005,128.8253,425.35,135.821" style="stroke: #A80036; stroke-width: 1.0;"/><path d="M361.084,76.037 C366.712,92.087 373.685,111.971 380.339,130.948 " fill="none" style="stroke: #A80036; stroke-width: 1.0;"/><polygon fill="#A80036" points="382.023,135.751,382.8201,125.9345,380.3688,131.0326,375.2706,128.5812,382.023,135.751" style="stroke: #A80036; stroke-width: 1.0;"/></g></svg>